<?xml version="1.0" encoding="utf-8"?>
<!-- Generator: Adobe Illustrator 27.5.0, SVG Export Plug-In . SVG Version: 6.00 Build 0)  -->
<svg version="1.1" xmlns="http://www.w3.org/2000/svg" xmlns:xlink="http://www.w3.org/1999/xlink" x="0px" y="0px"
	 viewBox="0 0 800 800" style="enable-background:new 0 0 800 800;" xml:space="preserve">
<g id="background">
</g>
<g id="objects">
	<g>
		<g>
			<path style="fill-rule:evenodd;clip-rule:evenodd;fill:#575756;" d="M292.89,771.477c0.381,0,0.727-0.104,1.042-0.301
				c0.318-0.199,0.57-0.502,0.76-0.916c0.188-0.416,0.281-0.928,0.281-1.543c0-0.584-0.094-1.082-0.281-1.498
				c-0.189-0.42-0.445-0.74-0.77-0.955c-0.314-0.223-0.658-0.328-1.032-0.332v-1.572c0.354,0.053,0.668,0.145,0.943,0.279
				c0.43,0.215,0.851,0.549,1.259,0.994v-3.215c0-0.449,0.09-0.785,0.268-1.014c0.179-0.232,0.433-0.342,0.761-0.342
				c0.332,0,0.586,0.106,0.762,0.318c0.182,0.209,0.272,0.516,0.272,0.926v9.608c0,0.414-0.096,0.727-0.287,0.932
				c-0.195,0.209-0.442,0.311-0.746,0.311c-0.299,0-0.542-0.102-0.736-0.32c-0.194-0.213-0.293-0.525-0.293-0.922v-0.219
				c-0.291,0.34-0.58,0.609-0.864,0.82c-0.284,0.213-0.591,0.369-0.927,0.48c-0.131,0.043-0.27,0.078-0.411,0.106V771.477z
				 M290.809,768.717c0,0.586,0.091,1.09,0.274,1.508c0.185,0.414,0.437,0.723,0.755,0.934c0.318,0.213,0.666,0.318,1.045,0.318
				h0.007v1.625c-0.214,0.035-0.44,0.055-0.677,0.055c-0.522,0-1.004-0.109-1.447-0.328c-0.443-0.221-0.83-0.535-1.154-0.947
				c-0.326-0.404-0.571-0.889-0.74-1.443c-0.168-0.551-0.25-1.15-0.25-1.797c0-1.359,0.334-2.42,0.997-3.182
				c0.666-0.76,1.541-1.141,2.628-1.141c0.228,0,0.441,0.014,0.643,0.041v1.572h-0.024c-0.396,0-0.754,0.109-1.068,0.334
				c-0.313,0.228-0.557,0.555-0.728,0.978C290.895,767.664,290.809,768.158,290.809,768.717z"/>
			<path style="fill-rule:evenodd;clip-rule:evenodd;fill:#575756;" d="M303.133,768.027h1.975
				c-0.051-0.742-0.254-1.301-0.604-1.668c-0.348-0.369-0.805-0.557-1.371-0.557v-1.516h0.068c0.851,0,1.582,0.176,2.188,0.541
				c0.612,0.357,1.068,0.82,1.373,1.389c0.303,0.566,0.451,1.148,0.451,1.74c0,0.545-0.158,0.904-0.47,1.065
				c-0.317,0.164-0.755,0.244-1.325,0.244h-2.285V768.027L303.133,768.027z M303.133,773.154v-1.445
				c0.055,0.002,0.108,0.004,0.164,0.004c0.258,0,0.498-0.029,0.715-0.09c0.213-0.058,0.421-0.156,0.623-0.287
				c0.204-0.133,0.391-0.271,0.562-0.42c0.168-0.148,0.388-0.35,0.66-0.604c0.111-0.098,0.271-0.148,0.478-0.148
				c0.224,0,0.403,0.063,0.543,0.185c0.138,0.121,0.208,0.297,0.208,0.518c0,0.197-0.077,0.426-0.229,0.691
				c-0.157,0.264-0.388,0.518-0.701,0.758c-0.309,0.242-0.7,0.441-1.173,0.605c-0.472,0.156-1.012,0.234-1.623,0.234
				C303.283,773.156,303.206,773.156,303.133,773.154z M301.16,768.027h1.973v1.238h-1.973c0.002,0.494,0.103,0.93,0.295,1.305
				c0.195,0.381,0.453,0.664,0.779,0.855c0.273,0.166,0.574,0.26,0.898,0.283v1.445c-1.289-0.043-2.303-0.44-3.037-1.195
				c-0.777-0.797-1.166-1.877-1.166-3.242c0-0.646,0.096-1.242,0.289-1.797c0.192-0.547,0.471-1.022,0.838-1.414
				c0.367-0.393,0.818-0.695,1.355-0.904c0.52-0.205,1.092-0.309,1.721-0.315v1.516h-0.005c-0.542,0-0.989,0.186-1.335,0.557
				C301.445,766.738,301.231,767.293,301.16,768.027z"/>
			<path style="fill-rule:evenodd;clip-rule:evenodd;fill:#575756;" d="M316.063,770.313c0,0.598-0.146,1.113-0.438,1.539
				c-0.296,0.432-0.726,0.756-1.298,0.977c-0.569,0.219-1.268,0.328-2.087,0.328c-0.779,0-1.453-0.115-2.01-0.356
				c-0.563-0.238-0.971-0.543-1.239-0.898c-0.263-0.357-0.398-0.719-0.398-1.082c0-0.24,0.085-0.443,0.257-0.613
				c0.171-0.172,0.386-0.258,0.646-0.258c0.229,0,0.403,0.059,0.528,0.17c0.121,0.108,0.239,0.268,0.353,0.469
				c0.222,0.389,0.487,0.68,0.798,0.867c0.313,0.195,0.737,0.289,1.273,0.289c0.436,0,0.793-0.098,1.076-0.289
				c0.277-0.193,0.417-0.416,0.417-0.666c0-0.383-0.148-0.664-0.434-0.84c-0.29-0.172-0.769-0.344-1.435-0.502
				c-0.75-0.186-1.359-0.377-1.83-0.586c-0.471-0.205-0.846-0.473-1.128-0.809c-0.282-0.338-0.425-0.744-0.425-1.238
				c0.002-0.438,0.131-0.848,0.393-1.24c0.26-0.387,0.646-0.691,1.152-0.926c0.508-0.23,1.121-0.346,1.838-0.346
				c0.565,0,1.071,0.057,1.522,0.172c0.449,0.119,0.824,0.275,1.125,0.475c0.3,0.195,0.528,0.414,0.684,0.654
				c0.158,0.238,0.236,0.473,0.236,0.699c0,0.25-0.083,0.457-0.25,0.613c-0.166,0.158-0.406,0.242-0.713,0.242
				c-0.225,0-0.414-0.064-0.572-0.189c-0.157-0.127-0.336-0.318-0.538-0.576c-0.164-0.213-0.358-0.385-0.583-0.514
				c-0.223-0.125-0.527-0.191-0.91-0.191c-0.393,0-0.719,0.09-0.98,0.256c-0.262,0.166-0.393,0.375-0.393,0.621
				c0,0.232,0.096,0.42,0.289,0.564c0.193,0.146,0.447,0.269,0.775,0.367c0.322,0.092,0.77,0.207,1.338,0.35
				c0.676,0.166,1.228,0.355,1.657,0.588c0.429,0.231,0.753,0.498,0.974,0.813C315.952,769.557,316.063,769.914,316.063,770.313z"/>
			<path style="fill-rule:evenodd;clip-rule:evenodd;fill:#575756;" d="M320.084,765.535v6.299c0,0.438-0.104,0.766-0.311,0.99
				c-0.205,0.223-0.471,0.332-0.789,0.332c-0.32,0-0.58-0.111-0.777-0.34c-0.201-0.231-0.299-0.559-0.299-0.982v-6.23
				c0-0.43,0.098-0.758,0.299-0.973c0.197-0.219,0.457-0.328,0.777-0.328c0.318,0,0.584,0.109,0.789,0.328
				C319.98,764.846,320.084,765.148,320.084,765.535L320.084,765.535z M319.008,763.289c-0.305,0-0.563-0.096-0.777-0.279
				c-0.217-0.188-0.323-0.451-0.323-0.789c0-0.31,0.11-0.566,0.331-0.766c0.221-0.201,0.477-0.297,0.77-0.297
				c0.281,0,0.531,0.088,0.75,0.269c0.217,0.184,0.326,0.447,0.326,0.793c0,0.334-0.105,0.594-0.316,0.785
				C319.552,763.191,319.301,763.289,319.008,763.289z"/>
			<path style="fill-rule:evenodd;clip-rule:evenodd;fill:#575756;" d="M326.131,771.34c0.352-0.004,0.69-0.102,1.004-0.289
				c0.322-0.199,0.584-0.49,0.785-0.881c0.205-0.393,0.305-0.867,0.305-1.422c0-0.892-0.195-1.58-0.586-2.078
				c-0.385-0.484-0.887-0.73-1.508-0.738v-1.559c0.334,0.057,0.637,0.156,0.912,0.297c0.451,0.236,0.871,0.611,1.264,1.115v-0.295
				c0-0.377,0.09-0.672,0.277-0.877c0.185-0.209,0.424-0.311,0.715-0.311c0.422,0,0.701,0.139,0.84,0.41
				c0.139,0.27,0.207,0.666,0.207,1.185v6.328c0,0.721-0.074,1.346-0.23,1.867c-0.154,0.521-0.4,0.951-0.742,1.293
				c-0.34,0.336-0.785,0.594-1.336,0.758c-0.52,0.15-1.154,0.234-1.906,0.242v-1.514c0.477-0.017,0.854-0.094,1.133-0.234
				c0.311-0.156,0.525-0.375,0.654-0.656c0.125-0.287,0.195-0.588,0.217-0.906c0.02-0.322,0.041-0.838,0.051-1.553
				c-0.338,0.465-0.725,0.826-1.164,1.068c-0.266,0.148-0.565,0.252-0.891,0.31V771.34z M324.035,768.66
				c0,0.881,0.193,1.551,0.578,2.002c0.387,0.447,0.885,0.678,1.498,0.678h0.02v1.563c-0.213,0.037-0.439,0.055-0.676,0.055
				c-0.729,0-1.365-0.185-1.912-0.559c-0.545-0.369-0.965-0.891-1.254-1.564c-0.295-0.67-0.441-1.443-0.441-2.324
				c0-0.648,0.092-1.24,0.268-1.766c0.18-0.527,0.432-0.973,0.762-1.334c0.33-0.365,0.709-0.633,1.143-0.818
				c0.43-0.18,0.904-0.273,1.42-0.273c0.242,0,0.473,0.017,0.691,0.055v1.559h-0.037c-0.623,0-1.123,0.233-1.496,0.709
				C324.222,767.111,324.035,767.781,324.035,768.66L324.035,768.66z M326.131,774.873v1.514l-0.148,0.002
				c-0.748,0-1.422-0.103-2.01-0.316c-0.592-0.207-1.047-0.479-1.367-0.811c-0.316-0.336-0.475-0.676-0.475-1.027
				c0-0.266,0.088-0.48,0.27-0.645c0.178-0.176,0.396-0.258,0.652-0.258c0.32,0,0.598,0.141,0.84,0.422
				c0.115,0.144,0.234,0.293,0.361,0.438c0.127,0.144,0.264,0.271,0.418,0.377c0.148,0.102,0.332,0.178,0.545,0.228
				c0.211,0.051,0.457,0.078,0.732,0.078C326.012,774.875,326.072,774.875,326.131,774.873z"/>
			<path style="fill-rule:evenodd;clip-rule:evenodd;fill:#575756;" d="M334.527,765.506v0.266c0.385-0.508,0.805-0.877,1.258-1.113
				c0.453-0.238,0.977-0.356,1.568-0.356c0.576,0,1.088,0.123,1.539,0.371c0.451,0.252,0.789,0.607,1.012,1.063
				c0.145,0.27,0.238,0.559,0.281,0.859c0.043,0.313,0.063,0.705,0.063,1.182v4.057c0,0.438-0.098,0.766-0.297,0.99
				c-0.199,0.223-0.461,0.332-0.779,0.332c-0.324,0-0.588-0.111-0.791-0.34c-0.199-0.231-0.301-0.559-0.301-0.982v-3.633
				c0-0.715-0.102-1.266-0.299-1.648c-0.199-0.379-0.6-0.568-1.195-0.568c-0.389,0-0.74,0.117-1.061,0.348
				c-0.32,0.227-0.553,0.547-0.703,0.953c-0.103,0.326-0.16,0.934-0.16,1.82v2.728c0,0.439-0.102,0.773-0.305,0.994
				c-0.207,0.219-0.471,0.328-0.795,0.328c-0.313,0-0.572-0.111-0.775-0.34c-0.201-0.231-0.301-0.559-0.301-0.982v-6.299
				c0-0.412,0.09-0.725,0.273-0.926c0.18-0.205,0.424-0.307,0.738-0.307c0.189,0,0.365,0.043,0.518,0.133
				c0.154,0.092,0.279,0.227,0.371,0.41C334.48,765.023,334.527,765.244,334.527,765.506z"/>
			<path style="fill-rule:evenodd;clip-rule:evenodd;fill:#575756;" d="M346.215,768.027h1.975
				c-0.055-0.742-0.256-1.301-0.605-1.668c-0.344-0.369-0.805-0.557-1.369-0.557v-1.516h0.068c0.85,0,1.578,0.176,2.188,0.541
				c0.609,0.357,1.066,0.82,1.371,1.389c0.301,0.566,0.453,1.148,0.453,1.74c0,0.545-0.158,0.904-0.471,1.065
				c-0.313,0.164-0.754,0.244-1.324,0.244h-2.285V768.027L346.215,768.027z M346.215,773.154v-1.445
				c0.053,0.002,0.107,0.004,0.164,0.004c0.26,0,0.496-0.029,0.713-0.09c0.217-0.058,0.422-0.156,0.627-0.287
				c0.203-0.133,0.389-0.271,0.557-0.42c0.172-0.148,0.393-0.35,0.662-0.604c0.113-0.098,0.273-0.148,0.479-0.148
				c0.225,0,0.404,0.063,0.543,0.185c0.139,0.121,0.211,0.297,0.211,0.518c0,0.197-0.078,0.426-0.234,0.691
				c-0.154,0.264-0.387,0.518-0.699,0.758c-0.307,0.242-0.699,0.441-1.172,0.605c-0.469,0.156-1.012,0.234-1.623,0.234
				C346.365,773.156,346.289,773.156,346.215,773.154z M344.238,768.027h1.977v1.238h-1.977c0.006,0.494,0.105,0.93,0.299,1.305
				c0.193,0.381,0.453,0.664,0.771,0.855c0.279,0.166,0.58,0.26,0.906,0.283v1.445c-1.291-0.043-2.303-0.44-3.037-1.195
				c-0.775-0.797-1.168-1.877-1.168-3.242c0-0.646,0.1-1.242,0.289-1.797c0.191-0.547,0.471-1.022,0.84-1.414
				c0.367-0.393,0.816-0.695,1.355-0.904c0.518-0.205,1.09-0.307,1.721-0.315v1.516h-0.006c-0.543,0-0.988,0.186-1.338,0.557
				C344.525,766.738,344.314,767.293,344.238,768.027z"/>
			<path style="fill-rule:evenodd;clip-rule:evenodd;fill:#575756;" d="M355.898,771.477c0.379-0.002,0.725-0.104,1.041-0.301
				c0.313-0.199,0.568-0.502,0.756-0.916c0.191-0.416,0.285-0.928,0.285-1.543c0-0.584-0.094-1.082-0.285-1.498
				c-0.188-0.42-0.443-0.74-0.766-0.955c-0.313-0.223-0.656-0.328-1.031-0.332v-1.572c0.353,0.053,0.666,0.145,0.938,0.279
				c0.432,0.215,0.853,0.549,1.262,0.994v-3.215c0-0.449,0.092-0.785,0.27-1.014c0.178-0.232,0.43-0.342,0.762-0.342
				c0.328,0,0.582,0.106,0.762,0.318c0.178,0.209,0.268,0.516,0.268,0.926v9.608c0,0.414-0.096,0.727-0.287,0.932
				c-0.191,0.209-0.441,0.311-0.742,0.311c-0.299,0-0.545-0.102-0.738-0.32c-0.195-0.213-0.293-0.525-0.293-0.922v-0.219
				c-0.293,0.34-0.58,0.609-0.865,0.82c-0.285,0.213-0.594,0.369-0.924,0.48c-0.133,0.043-0.268,0.078-0.41,0.106V771.477z
				 M353.814,768.717c0,0.586,0.092,1.09,0.275,1.508c0.186,0.414,0.436,0.723,0.752,0.934c0.32,0.213,0.67,0.318,1.045,0.318h0.012
				v1.625c-0.217,0.035-0.443,0.055-0.68,0.055c-0.52,0-1.006-0.109-1.449-0.328c-0.443-0.221-0.828-0.535-1.15-0.947
				c-0.328-0.404-0.572-0.889-0.738-1.443c-0.17-0.551-0.254-1.15-0.254-1.797c0-1.359,0.332-2.42,0.998-3.182
				c0.666-0.76,1.541-1.141,2.627-1.141c0.227,0,0.443,0.014,0.647,0.041v1.572h-0.027c-0.398,0-0.754,0.109-1.068,0.334
				c-0.314,0.228-0.557,0.555-0.73,0.978C353.898,767.664,353.814,768.158,353.814,768.717z"/>
			<path style="fill-rule:evenodd;clip-rule:evenodd;fill:#575756;" d="M370.627,771.477h0.07c0.549,0,1.022-0.242,1.418-0.715
				c0.397-0.477,0.594-1.158,0.594-2.045c0-0.58-0.08-1.07-0.246-1.488c-0.166-0.414-0.4-0.734-0.701-0.963
				c-0.303-0.225-0.66-0.334-1.065-0.334c-0.023,0-0.045,0-0.07,0.002v-1.572c0.203-0.029,0.418-0.043,0.648-0.043
				c0.721,0,1.357,0.174,1.9,0.514c0.547,0.342,0.969,0.838,1.27,1.492c0.301,0.648,0.449,1.426,0.449,2.316
				c0,0.662-0.084,1.27-0.248,1.818c-0.168,0.551-0.412,1.027-0.733,1.43c-0.32,0.404-0.705,0.719-1.16,0.939
				c-0.453,0.219-0.955,0.328-1.504,0.328c-0.215,0-0.424-0.016-0.623-0.047V771.477z M368.545,768.777c0,0.867,0.199,1.535,0.592,2
				c0.385,0.449,0.879,0.68,1.49,0.699v1.633c-0.109-0.02-0.219-0.043-0.322-0.068c-0.295-0.084-0.549-0.188-0.754-0.32
				c-0.207-0.127-0.385-0.26-0.533-0.402c-0.145-0.137-0.338-0.344-0.574-0.623v0.219c0,0.408-0.1,0.719-0.299,0.932
				c-0.195,0.209-0.443,0.311-0.748,0.311c-0.309,0-0.557-0.102-0.74-0.311c-0.184-0.213-0.275-0.523-0.275-0.932v-9.516
				c0-0.435,0.092-0.771,0.268-0.996c0.18-0.23,0.426-0.34,0.748-0.34c0.334,0,0.592,0.107,0.773,0.324
				c0.18,0.217,0.273,0.52,0.273,0.92v3.326c0.408-0.426,0.824-0.75,1.25-0.975c0.272-0.145,0.582-0.244,0.934-0.297v1.572
				c-0.385,0.01-0.728,0.123-1.035,0.332c-0.326,0.228-0.584,0.555-0.768,0.984C368.637,767.682,368.545,768.19,368.545,768.777z"/>
			<path style="fill-rule:evenodd;clip-rule:evenodd;fill:#575756;" d="M378.439,773.432l0.199-0.486l-2.682-6.752
				c-0.164-0.391-0.246-0.674-0.246-0.846c0-0.184,0.045-0.365,0.145-0.52c0.094-0.162,0.225-0.287,0.393-0.381
				c0.168-0.098,0.344-0.145,0.521-0.145c0.316,0,0.551,0.1,0.711,0.299c0.16,0.197,0.303,0.482,0.426,0.857l1.844,5.361
				l1.746-4.988c0.137-0.404,0.264-0.719,0.373-0.949c0.113-0.229,0.23-0.381,0.357-0.461c0.123-0.08,0.301-0.119,0.529-0.119
				c0.164,0,0.322,0.043,0.475,0.133c0.152,0.088,0.268,0.203,0.35,0.354c0.084,0.148,0.123,0.305,0.123,0.469
				c-0.018,0.098-0.055,0.244-0.102,0.43c-0.047,0.19-0.107,0.379-0.178,0.568l-2.838,7.435c-0.246,0.658-0.484,1.168-0.721,1.539
				c-0.23,0.375-0.539,0.66-0.928,0.859c-0.385,0.199-0.906,0.299-1.559,0.299c-0.639,0-1.117-0.072-1.438-0.207
				c-0.318-0.135-0.477-0.389-0.477-0.756c0-0.252,0.074-0.441,0.225-0.582c0.154-0.139,0.377-0.201,0.676-0.201
				c0.113,0,0.23,0.016,0.344,0.049c0.137,0.029,0.256,0.045,0.357,0.045c0.25,0,0.447-0.039,0.588-0.111
				c0.147-0.07,0.275-0.203,0.389-0.387C378.158,774.057,378.293,773.785,378.439,773.432z"/>
			<path style="fill-rule:evenodd;clip-rule:evenodd;fill:#575756;" d="M418.75,764.494h0.523v-0.656
				c0-0.682,0.086-1.221,0.258-1.623c0.17-0.398,0.467-0.695,0.877-0.877c0.416-0.186,0.977-0.275,1.697-0.275
				c1.268,0,1.908,0.31,1.908,0.934c0,0.199-0.068,0.371-0.203,0.518c-0.133,0.145-0.285,0.219-0.471,0.219
				c-0.086,0-0.233-0.018-0.438-0.051c-0.207-0.031-0.381-0.047-0.527-0.047c-0.393,0-0.645,0.115-0.758,0.348
				c-0.111,0.228-0.17,0.563-0.17,0.988v0.523h0.537c0.83,0,1.246,0.25,1.246,0.748c0,0.356-0.111,0.584-0.328,0.678
				c-0.225,0.098-0.529,0.146-0.918,0.146h-0.537v5.768c0,0.43-0.104,0.76-0.305,0.988c-0.205,0.225-0.469,0.334-0.795,0.334
				c-0.307,0-0.564-0.109-0.77-0.334c-0.205-0.229-0.305-0.559-0.305-0.988v-5.768h-0.604c-0.324,0-0.572-0.074-0.746-0.225
				c-0.176-0.144-0.266-0.332-0.266-0.566C417.658,764.754,418.023,764.494,418.75,764.494z"/>
			<path style="fill-rule:evenodd;clip-rule:evenodd;fill:#575756;" d="M426.533,770.014v1.82c0,0.439-0.102,0.773-0.311,0.994
				c-0.207,0.219-0.469,0.328-0.793,0.328c-0.309,0-0.568-0.109-0.77-0.332c-0.205-0.225-0.307-0.553-0.307-0.99v-6.063
				c0-0.982,0.355-1.469,1.061-1.469c0.361,0,0.625,0.115,0.783,0.342c0.164,0.227,0.248,0.566,0.266,1.012
				c0.26-0.445,0.527-0.785,0.801-1.012c0.275-0.226,0.641-0.342,1.098-0.342s0.898,0.115,1.332,0.342
				c0.434,0.227,0.645,0.531,0.645,0.908c0,0.268-0.088,0.486-0.271,0.66c-0.188,0.172-0.381,0.258-0.598,0.258
				c-0.078,0-0.273-0.049-0.578-0.146c-0.305-0.1-0.574-0.15-0.813-0.15c-0.318,0-0.578,0.09-0.777,0.256
				c-0.203,0.164-0.362,0.414-0.473,0.742c-0.113,0.334-0.188,0.725-0.232,1.182C426.554,768.807,426.533,769.359,426.533,770.014z"
				/>
			<path style="fill-rule:evenodd;clip-rule:evenodd;fill:#575756;" d="M434.916,768.027h1.975
				c-0.059-0.742-0.254-1.301-0.602-1.668c-0.348-0.369-0.807-0.557-1.373-0.557v-1.516h0.068c0.848,0,1.578,0.176,2.188,0.541
				c0.605,0.357,1.066,0.82,1.369,1.389c0.303,0.566,0.457,1.148,0.457,1.74c0,0.545-0.154,0.904-0.471,1.065
				c-0.312,0.164-0.756,0.244-1.326,0.244h-2.285V768.027L434.916,768.027z M434.916,773.154v-1.445
				c0.053,0.002,0.109,0.004,0.164,0.004c0.262,0,0.5-0.029,0.717-0.09c0.211-0.058,0.422-0.156,0.621-0.287
				c0.203-0.133,0.391-0.271,0.563-0.42c0.168-0.148,0.393-0.35,0.656-0.604c0.117-0.098,0.279-0.148,0.484-0.148
				c0.221,0,0.402,0.063,0.541,0.185c0.137,0.121,0.205,0.297,0.205,0.518c0,0.197-0.074,0.426-0.229,0.691
				c-0.156,0.264-0.389,0.518-0.697,0.758c-0.313,0.242-0.703,0.441-1.174,0.605c-0.473,0.156-1.012,0.234-1.623,0.234
				C435.066,773.156,434.992,773.156,434.916,773.154z M432.941,768.027h1.975v1.238h-1.975c0.006,0.494,0.105,0.93,0.297,1.305
				c0.195,0.381,0.451,0.664,0.777,0.855c0.275,0.166,0.574,0.258,0.9,0.283v1.445c-1.293-0.043-2.305-0.44-3.035-1.195
				c-0.775-0.797-1.166-1.877-1.166-3.242c0-0.646,0.094-1.242,0.287-1.797c0.191-0.547,0.471-1.022,0.838-1.414
				c0.365-0.393,0.816-0.695,1.357-0.904c0.516-0.205,1.086-0.307,1.719-0.315v1.516h-0.006c-0.543,0-0.988,0.186-1.338,0.557
				C433.226,766.738,433.015,767.293,432.941,768.027z"/>
			<path style="fill-rule:evenodd;clip-rule:evenodd;fill:#575756;" d="M444.627,768.027h1.973c-0.055-0.742-0.256-1.301-0.6-1.668
				c-0.35-0.369-0.805-0.557-1.373-0.557v-1.516h0.065c0.855,0,1.584,0.176,2.193,0.541c0.607,0.357,1.066,0.82,1.371,1.389
				c0.303,0.566,0.451,1.148,0.451,1.74c0,0.545-0.158,0.904-0.473,1.065c-0.31,0.164-0.75,0.244-1.32,0.244h-2.287V768.027
				L444.627,768.027z M444.627,773.154v-1.445c0.053,0.002,0.105,0.004,0.164,0.004c0.258,0,0.494-0.029,0.709-0.09
				c0.217-0.058,0.43-0.156,0.627-0.287c0.205-0.133,0.391-0.271,0.565-0.42c0.17-0.148,0.391-0.35,0.662-0.604
				c0.111-0.098,0.266-0.148,0.475-0.148c0.223,0,0.406,0.063,0.549,0.185c0.131,0.121,0.201,0.297,0.201,0.518
				c0,0.197-0.072,0.426-0.229,0.691c-0.154,0.264-0.389,0.518-0.701,0.758c-0.311,0.242-0.699,0.441-1.172,0.605
				c-0.473,0.156-1.014,0.234-1.623,0.234C444.777,773.156,444.701,773.156,444.627,773.154z M442.652,768.027h1.975v1.238h-1.975
				c0.004,0.494,0.106,0.93,0.297,1.305c0.193,0.381,0.457,0.664,0.775,0.855c0.277,0.166,0.578,0.258,0.902,0.283v1.445
				c-1.291-0.043-2.299-0.44-3.037-1.195c-0.777-0.797-1.164-1.877-1.164-3.242c0-0.646,0.098-1.242,0.283-1.797
				c0.195-0.547,0.475-1.022,0.84-1.414c0.363-0.393,0.82-0.695,1.359-0.904c0.52-0.205,1.092-0.309,1.719-0.315v1.516h-0.008
				c-0.539,0-0.986,0.186-1.336,0.557C442.937,766.738,442.72,767.293,442.652,768.027z"/>
			<path style="fill-rule:evenodd;clip-rule:evenodd;fill:#575756;" d="M456.605,768.691c0-0.576-0.084-1.07-0.264-1.481
				c-0.176-0.414-0.416-0.732-0.727-0.947c-0.311-0.225-0.656-0.332-1.033-0.332h-0.059v-1.564c0.188-0.033,0.387-0.049,0.594-0.049
				c0.668,0,1.283,0.174,1.852,0.519c0.563,0.348,1.008,0.85,1.334,1.516c0.326,0.664,0.488,1.449,0.488,2.363
				c0,0.668-0.096,1.281-0.281,1.844c-0.188,0.561-0.445,1.035-0.777,1.412c-0.334,0.379-0.721,0.676-1.166,0.881
				c-0.453,0.203-0.936,0.303-1.449,0.303c-0.211,0-0.408-0.012-0.594-0.041v-1.639h0.059c0.363,0,0.693-0.106,1.004-0.318
				c0.309-0.211,0.559-0.52,0.742-0.943C456.511,769.793,456.605,769.287,456.605,768.691z M454.523,765.932
				c-0.576,0.014-1.063,0.248-1.461,0.709c-0.414,0.471-0.623,1.17-0.623,2.092c0,0.863,0.209,1.537,0.619,2.018
				c0.392,0.471,0.885,0.709,1.465,0.727v1.639c-0.371-0.057-0.697-0.164-0.975-0.334c-0.426-0.246-0.826-0.611-1.213-1.098v3.271
				c0,0.959-0.348,1.434-1.039,1.434c-0.412,0-0.684-0.123-0.818-0.371c-0.135-0.244-0.197-0.607-0.197-1.08v-9.402
				c0-0.412,0.092-0.725,0.27-0.926c0.18-0.205,0.426-0.307,0.746-0.307c0.305,0,0.559,0.102,0.748,0.313
				c0.197,0.213,0.291,0.514,0.291,0.904v0.266c0.418-0.504,0.84-0.879,1.279-1.115c0.279-0.147,0.582-0.25,0.908-0.303V765.932z"/>
			<path style="fill-rule:evenodd;clip-rule:evenodd;fill:#575756;" d="M462.722,765.535v6.299c0,0.438-0.107,0.766-0.316,0.99
				c-0.207,0.223-0.469,0.332-0.789,0.332c-0.32,0-0.574-0.111-0.777-0.34c-0.199-0.231-0.297-0.559-0.297-0.982v-6.23
				c0-0.43,0.098-0.758,0.297-0.973c0.203-0.219,0.457-0.328,0.777-0.328c0.32,0,0.582,0.109,0.789,0.328
				C462.615,764.846,462.722,765.148,462.722,765.535L462.722,765.535z M461.644,763.289c-0.307,0-0.57-0.096-0.781-0.279
				c-0.211-0.188-0.32-0.451-0.32-0.789c0-0.31,0.109-0.566,0.332-0.766c0.217-0.201,0.475-0.297,0.77-0.297
				c0.279,0,0.531,0.088,0.752,0.269c0.213,0.184,0.326,0.447,0.326,0.793c0,0.334-0.109,0.594-0.324,0.785
				C462.187,763.191,461.935,763.289,461.644,763.289z"/>
			<path style="fill-rule:evenodd;clip-rule:evenodd;fill:#575756;" d="M470.396,772.16l-1.924-3.16l-1.184,1.119v1.733
				c0,0.42-0.107,0.742-0.324,0.971c-0.227,0.225-0.479,0.334-0.764,0.334c-0.338,0-0.6-0.109-0.791-0.332
				c-0.193-0.225-0.289-0.553-0.289-0.99v-9.287c0-0.484,0.09-0.852,0.277-1.105c0.191-0.254,0.453-0.379,0.803-0.379
				c0.334,0,0.602,0.109,0.795,0.342c0.197,0.229,0.293,0.565,0.293,1.014v5.285l2.451-2.574c0.305-0.318,0.535-0.535,0.691-0.654
				c0.164-0.115,0.359-0.172,0.588-0.172c0.27,0,0.492,0.082,0.678,0.26c0.178,0.172,0.27,0.387,0.27,0.648
				c0,0.318-0.293,0.748-0.887,1.279l-1.152,1.059l2.228,3.512c0.172,0.262,0.289,0.461,0.357,0.594
				c0.074,0.137,0.108,0.268,0.108,0.385c0,0.348-0.092,0.619-0.283,0.824c-0.189,0.193-0.439,0.293-0.744,0.293
				c-0.268,0-0.473-0.068-0.617-0.211C470.836,772.801,470.642,772.535,470.396,772.16z"/>
			<path style="fill-rule:evenodd;clip-rule:evenodd;fill:#575756;" d="M475.779,773.156c-0.326,0-0.609-0.102-0.85-0.317
				c-0.24-0.211-0.363-0.512-0.363-0.896c0-0.324,0.119-0.604,0.344-0.838c0.232-0.233,0.516-0.348,0.848-0.348
				c0.334,0,0.621,0.115,0.857,0.346c0.236,0.232,0.355,0.508,0.355,0.84c0,0.379-0.119,0.68-0.355,0.892
				C476.379,773.055,476.101,773.156,475.779,773.156z"/>
			<path style="fill-rule:evenodd;clip-rule:evenodd;fill:#575756;" d="M487.267,770.461c0,0.273-0.086,0.561-0.248,0.871
				c-0.16,0.311-0.408,0.602-0.738,0.883c-0.33,0.279-0.756,0.504-1.256,0.67c-0.504,0.172-1.078,0.256-1.711,0.256
				c-1.348,0-2.392-0.393-3.15-1.176c-0.754-0.781-1.135-1.834-1.135-3.152c0-0.9,0.176-1.688,0.522-2.375
				c0.34-0.684,0.846-1.215,1.5-1.588c0.652-0.377,1.433-0.563,2.346-0.563c0.563,0,1.078,0.08,1.551,0.246
				c0.473,0.166,0.869,0.373,1.197,0.641c0.326,0.256,0.578,0.537,0.75,0.832c0.172,0.297,0.26,0.57,0.26,0.826
				c0,0.262-0.1,0.483-0.295,0.664c-0.191,0.184-0.426,0.268-0.701,0.268c-0.186,0-0.338-0.047-0.455-0.139
				c-0.117-0.092-0.254-0.24-0.4-0.453c-0.268-0.398-0.545-0.705-0.834-0.906c-0.289-0.203-0.66-0.303-1.105-0.303
				c-0.643,0-1.158,0.25-1.555,0.752c-0.395,0.504-0.594,1.188-0.594,2.063c0,0.41,0.047,0.787,0.152,1.133
				c0.1,0.338,0.248,0.631,0.441,0.875c0.188,0.238,0.422,0.426,0.693,0.551c0.268,0.123,0.572,0.188,0.895,0.188
				c0.43,0,0.809-0.103,1.119-0.303c0.313-0.205,0.584-0.508,0.828-0.928c0.129-0.244,0.277-0.436,0.434-0.574
				c0.15-0.137,0.336-0.205,0.563-0.205c0.269,0,0.486,0.1,0.662,0.303C487.176,770.019,487.267,770.236,487.267,770.461z"/>
			<path style="fill-rule:evenodd;clip-rule:evenodd;fill:#575756;" d="M495.134,768.732c0-0.889-0.199-1.582-0.588-2.076
				c-0.387-0.492-0.906-0.74-1.565-0.744v-1.609c0.66,0.002,1.25,0.111,1.783,0.316c0.537,0.213,0.998,0.516,1.383,0.91
				c0.383,0.396,0.67,0.863,0.871,1.406c0.201,0.543,0.299,1.141,0.299,1.797c0,0.645-0.098,1.246-0.299,1.787
				c-0.207,0.555-0.504,1.025-0.883,1.416c-0.379,0.393-0.84,0.697-1.371,0.91c-0.529,0.209-1.123,0.311-1.783,0.311v-1.621
				c0.658-0.004,1.178-0.248,1.565-0.746C494.935,770.293,495.134,769.606,495.134,768.732z M492.982,765.912l-0.014-0.002
				c-0.424,0-0.801,0.111-1.125,0.332c-0.32,0.225-0.572,0.549-0.752,0.977c-0.172,0.435-0.262,0.939-0.262,1.514
				c0,0.568,0.086,1.066,0.262,1.492c0.172,0.424,0.42,0.748,0.74,0.975c0.322,0.227,0.701,0.336,1.137,0.336h0.014v1.621h-0.014
				c-0.654,0-1.25-0.102-1.781-0.317c-0.523-0.211-0.977-0.517-1.367-0.914c-0.383-0.396-0.678-0.865-0.871-1.406
				c-0.205-0.539-0.305-1.135-0.305-1.787c0-0.662,0.1-1.266,0.311-1.816c0.195-0.545,0.484-1.016,0.863-1.402
				c0.377-0.387,0.836-0.686,1.369-0.898c0.543-0.211,1.131-0.313,1.781-0.313h0.014V765.912z"/>
			<path style="fill-rule:evenodd;clip-rule:evenodd;fill:#575756;" d="M506.281,768.891v2.893c0,0.457-0.103,0.803-0.314,1.033
				c-0.203,0.229-0.483,0.34-0.822,0.34c-0.328,0-0.594-0.111-0.799-0.34c-0.205-0.231-0.309-0.576-0.309-1.033v-3.471
				c0-0.549-0.02-0.967-0.057-1.273c-0.035-0.305-0.137-0.553-0.304-0.744c-0.162-0.199-0.424-0.289-0.781-0.289
				c-0.709,0-1.18,0.24-1.402,0.728c-0.227,0.49-0.34,1.191-0.34,2.107v2.941c0,0.455-0.107,0.793-0.31,1.027
				c-0.201,0.233-0.475,0.346-0.811,0.346c-0.328,0-0.598-0.113-0.81-0.346c-0.211-0.234-0.315-0.572-0.315-1.027v-6.231
				c0-0.408,0.094-0.721,0.285-0.934c0.189-0.207,0.435-0.316,0.742-0.316c0.301,0,0.551,0.1,0.748,0.299
				c0.201,0.197,0.301,0.475,0.301,0.826v0.205c0.377-0.447,0.779-0.783,1.211-0.996c0.434-0.211,0.91-0.318,1.438-0.318
				c0.547,0,1.02,0.107,1.41,0.326c0.395,0.217,0.723,0.549,0.975,0.988c0.371-0.445,0.764-0.779,1.184-0.994
				c0.418-0.213,0.885-0.32,1.398-0.32c0.594,0,1.105,0.117,1.537,0.348c0.432,0.24,0.752,0.572,0.961,1.004
				c0.189,0.396,0.283,1.02,0.283,1.863v4.25c0,0.457-0.109,0.803-0.315,1.033c-0.203,0.229-0.474,0.34-0.82,0.34
				c-0.326,0-0.596-0.113-0.807-0.346c-0.211-0.234-0.316-0.572-0.316-1.027v-3.662c0-0.463-0.02-0.84-0.061-1.127
				c-0.041-0.279-0.146-0.516-0.324-0.705c-0.174-0.193-0.441-0.283-0.799-0.283c-0.285,0-0.555,0.082-0.815,0.25
				c-0.256,0.17-0.457,0.4-0.605,0.689C506.359,767.31,506.281,767.957,506.281,768.891z"/>
			<path style="fill-rule:evenodd;clip-rule:evenodd;fill:#575756;" d="M401.588,758.685c-0.045-0.142-0.092-0.279-0.137-0.418
				c0.729-0.068,1.221-0.945,0.863-1.594c-0.172-0.389-0.574-0.598-0.974-0.605h-0.045c-0.342,0.006-0.674,0.152-0.871,0.457
				c-0.465,0.588-0.102,1.529,0.613,1.721c0.043,0.146,0.086,0.297,0.131,0.453c-1.098,0.072-2.217,0.314-3.137,0.941
				c0.094,0.262,0.189,0.531,0.283,0.803c1.857-0.818,3.939-0.643,5.896-0.445c0.066-0.258,0.129-0.517,0.197-0.775
				C403.521,758.824,402.551,758.678,401.588,758.685z"/>
			<path style="fill-rule:evenodd;clip-rule:evenodd;fill:#575756;" d="M412.625,761.682c-0.289,0.148-0.346,0.504-0.326,0.797
				c-0.33,0.32-0.174,0.799-0.209,1.197c-0.076,0.223-0.342,0.248-0.527,0.33c-0.256-0.387-0.529-0.764-0.875-1.082l0.002-0.02
				c-0.371-0.35-0.775-0.672-1.205-0.947c-0.342,0.369-0.703,0.733-1.031,1.113c0.65,0.717,1.256,1.49,1.791,2.301
				c0.369,0.619,0.666,1.279,0.918,1.951c0.553-0.283,1.098-0.578,1.652-0.871c-0.291-0.672-0.625-1.328-0.978-1.977
				c0.244-0.129,0.572-0.256,0.611-0.576c0.025-0.352-0.053-0.734,0.158-1.043c0.428,0.279,1.074-0.033,1.08-0.555
				C413.744,761.764,413.068,761.381,412.625,761.682z"/>
			<path style="fill-rule:evenodd;clip-rule:evenodd;fill:#575756;" d="M408.299,766.148c-0.129,0.897-0.984,1.656-1.9,1.602v3.596
				c1.682-0.451,3.309-1.117,4.813-1.998c0,0-0.318-1.75-1.566-3.66c-0.721-1.193-1.496-2.381-2.557-3.301
				c-0.217-0.191-0.451-0.371-0.689-0.541v2.078c0.23,0.008,0.461,0.049,0.684,0.102
				C407.922,764.324,408.472,765.275,408.299,766.148z M406.398,767.75h-0.008c-0.529,0.043-1.039-0.209-1.4-0.582
				c-0.262-0.322-0.475-0.693-0.51-1.113c-0.125-0.912,0.518-1.854,1.41-2.066c0.166-0.051,0.336-0.068,0.508-0.064v-2.078
				c-1.104-0.77-2.418-1.258-3.768-1.25c-1.666-0.02-3.352,0.191-4.938,0.703v1.977c0.295,0,0.588,0.041,0.871,0.121
				c0.32,0.082,0.615,0.231,0.889,0.414c0.566,0.4,0.994,0.994,1.182,1.666c0.264,0.859,0.096,1.824-0.404,2.566
				c-0.363,0.523-0.879,0.932-1.473,1.16c-0.338,0.127-0.701,0.188-1.065,0.188v2.666l0.086,0.006
				c1.945,0.059,3.908,0.107,5.844-0.166c0.934-0.121,1.863-0.307,2.775-0.551V767.75z M397.693,761.299v1.977
				c-0.502-0.002-1,0.115-1.445,0.352c-0.92,0.494-1.568,1.473-1.611,2.521c-0.063,0.84,0.271,1.674,0.832,2.295
				c0.563,0.621,1.395,0.947,2.225,0.947v2.666c-1.947-0.098-3.865-0.519-5.752-0.992c-0.346-1.748-0.357-3.641,0.412-5.285
				c0.793-1.826,2.363-3.244,4.172-4.039C396.908,761.574,397.299,761.428,397.693,761.299z"/>
			<path style="fill-rule:evenodd;clip-rule:evenodd;fill:#575756;" d="M392.375,763.021c-0.777,0.471-1.416,1.133-1.951,1.861
				c-0.156-0.289-0.203-0.635-0.404-0.893c-0.117-0.154-0.324-0.092-0.486-0.094c-0.207,0.022-0.408-0.035-0.602-0.094
				c0.228-0.322,0.166-0.81-0.184-1.019c-0.371-0.27-0.947-0.035-1.045,0.408c-0.158,0.484,0.359,0.971,0.836,0.844
				c0.252,0.377,0.709,0.314,1.1,0.326c0.174,0.305,0.307,0.639,0.531,0.914c-0.418,0.82-0.652,1.742-0.67,2.666
				c0.533,0.223,1.068,0.453,1.609,0.676c0.023-0.586,0.092-1.162,0.18-1.732c0.18-1.252,0.902-2.338,1.76-3.234
				C392.836,763.428,392.599,763.234,392.375,763.021z"/>
			<path style="fill-rule:evenodd;clip-rule:evenodd;fill:#575756;" d="M404.894,772.445c-1.973,0.432-4.01,0.557-6.027,0.469
				c-1.363-0.07-2.729-0.195-4.061-0.49c-0.945-0.193-1.871-0.467-2.799-0.732c0.146,1.188,0.629,2.322,1.313,3.299
				c0.809,1.141,1.891,2.182,3.238,2.604c0.982,0.264,2.147,0.602,4.064,0.609h0.195l0.199-0.004
				c1.783-0.029,3.539-0.258,5.102-0.924c1.01-0.432,1.959-1.025,2.771-1.766c0.703-0.662,1.252-1.486,1.635-2.377
				c0.367-0.834,0.697-2.344,0.662-3.111C409.256,771.121,407.095,772.076,404.894,772.445z"/>
		</g>
	</g>
	<g>
		<g>
			<rect x="117.179" y="103.985" style="fill:#DADADA;" width="264.48" height="264.48"/>
			<polygon style="fill:#B2B2B2;" points="170.634,288.449 233,368.465 381.659,368.465 381.659,252.585 328.204,184.001 
				328.204,283.667 170.634,283 			"/>
			<g>
				<path d="M170.634,184.001v104.448h157.569V184.001H170.634z M249.414,248.501l-64.621-56.755h129.252L249.414,248.501z
					 M223.671,236.207l-45.291,39.776v-79.555L223.671,236.207z M229.544,241.359l19.87,17.449l19.87-17.449l44.8,39.343h-129.33
					L229.544,241.359z M275.158,236.207l45.291-39.779v79.555L275.158,236.207z M275.158,236.207"/>
			</g>
		</g>
		<g>
			<rect x="117.179" y="406" style="fill:#DADADA;" width="264.48" height="264.48"/>
			<path style="fill:#B2B2B2;" d="M300.964,487.09L381.659,589v81.48H262l-70.795-93.564c0,0-14.205-69.808,21.295-87.362
				S262.927,470.181,300.964,487.09z"/>
			<g>
				<path d="M284.202,507.357c0.227-1.209-0.396-2.413-1.511-2.927c-5.91-2.728-13.823-4.297-21.722-4.297
					c-26.629,0-48.3,21.671-48.3,48.307c0,17.681,11.809,26.93,23.468,26.93c10.54,0,19.024-4.224,25.793-12.871
					c0.732,3.116,2.12,5.794,4.136,7.913c3.043,3.197,7.384,4.966,12.226,4.966c18.355,0,36.938-16.662,36.938-48.499
					c0-34.328-24.126-58.301-58.689-58.301c-41.575,0-72.933,32.928-72.933,76.592c0,36.352,25.653,62.732,61,62.732
					c14.058,0,25.007-2.473,35.509-8.009c1.196-0.631,1.738-2.039,1.262-3.308l-3.073-8.279c-0.278-0.725-0.858-1.305-1.59-1.577
					c-0.734-0.27-1.554-0.205-2.238,0.176c-7.45,4.181-17.051,6.394-27.75,6.394c-27.985,0-46.789-19.807-46.789-49.289
					c0-35.472,23.16-61.22,55.068-61.22c27.076,0,43.892,17.336,43.892,45.249c0,20.101-9.284,32.547-18.019,32.547
					c-1.671-0.053-2.42-0.749-2.829-1.269c-1.13-1.416-2.685-5.523-0.389-17.116L284.202,507.357z M258.66,515.702
					c2.274,0,4.465,0.214,6.533,0.646L261.6,535.65c-1.966,11.082-11.499,23.959-20.843,23.959c-9.042,0-10.018-8.353-10.018-11.946
					C230.74,530.341,243.523,515.702,258.66,515.702L258.66,515.702z M258.66,515.702"/>
			</g>
		</g>
		<g>
			<rect x="415.997" y="103.985" style="fill:#DADADA;" width="264.48" height="264.48"/>
			<polygon style="fill:#B2B2B2;" points="616.462,189.235 680.477,271 680.477,368.465 548.237,369.469 493.229,297.36 
				495.755,250 481.325,232.842 516,179.192 			"/>
			<path d="M623.36,217.946c-0.192,0.967-0.192,1.95-0.555,2.851c-2.192,5.278-6.289,9.655-9.315,14.527
				c-3.883,6.201-36.92-7.189-32.652-15.467c1.587-3.07,7.854-11.545,8.326-14.956c0.428-3.048-3.609-5.427-7.316-5.729
				c-9.81-0.796-22.338-0.066-32.74,0c-0.28,0-0.582,0-0.862,0c-0.297,0-0.599,0-0.879,0c-10.403-0.066-22.936-0.796-32.74,0
				c-3.713,0.302-7.744,2.68-7.316,5.729c0.472,3.411,6.739,11.885,8.327,14.956c4.268,8.277-28.769,21.668-32.674,15.467
				c-3.004-4.872-7.102-9.249-9.293-14.527c-0.362-0.901-0.384-1.884-0.555-2.851c-4.85-21.651,13.835-43.747,41.962-46.021
				c10.749-0.879,21.52-1.373,32.29-1.543v-0.066c0.302,0,0.582,0.022,0.879,0.022c0.28,0,0.56-0.022,0.862-0.022v0.066
				c10.771,0.192,21.536,0.665,32.284,1.543C609.524,174.199,628.21,196.295,623.36,217.946L623.36,217.946z M604.048,292.693
				c0.302,5.196-3.087,9.441-7.569,9.441h-96.485c-4.46,0-7.871-4.246-7.574-9.441l2.812-47.372
				c10.232-2.4,23.299-8.667,28.039-16.433c2.642-4.334,2.922-9.205,0.753-13.407c-0.555-1.076-1.565-2.708-2.768-4.548
				c-0.022-0.088-0.022-0.088-0.06-0.154h52.518c-0.022,0.066-0.022,0.088-0.066,0.192c-0.665,1.587-0.879,2.812-0.769,3.713
				c-0.154,0.28-0.346,0.621-0.472,0.835c-2.148,4.163-1.867,9.035,0.769,13.369c4.745,7.766,17.812,14.033,28.044,16.411
				L604.048,292.693z M566.678,243.519c-10.106-10.106-26.539-10.106-36.667,0c-10.106,10.106-10.106,26.561,0,36.667
				c9.161,9.139,23.491,9.996,33.619,2.576l-6.327-6.333c-6.607,4.037-15.362,3.241-21.069-2.466
				c-6.673-6.673-6.673-17.548,0-24.243c6.695-6.673,17.548-6.673,24.243,0c5.685,5.685,6.481,14.395,2.488,20.981l6.349,6.355
				C576.674,266.927,575.818,252.636,566.678,243.519L566.678,243.519z M566.678,243.519"/>
		</g>
		<g>
			<rect x="415.997" y="406" style="fill:#DADADA;" width="264.48" height="264.48"/>
			<polygon style="fill:#B2B2B2;" points="591.414,463.783 680.477,577.053 680.477,670.48 548.237,670.48 505.142,618.872 
				585.068,620.056 593.163,609.498 			"/>
			<g>
				<path d="M584.374,461.331h-72.273c-6.015,0-10.948,4.932-10.948,10.948v140.205c0,6.015,4.932,10.948,10.948,10.948h72.273
					c6.015,0,10.947-4.933,10.947-10.948V472.279C595.321,466.263,590.389,461.331,584.374,461.331L584.374,461.331z
					 M536.682,469.222h23.111c0.747,0,1.332,0.591,1.332,1.337c0,0.724-0.585,1.308-1.332,1.308h-23.111
					c-0.747,0-1.338-0.585-1.338-1.308C535.344,469.812,535.935,469.222,536.682,469.222L536.682,469.222z M548.237,617.96
					c-3.033,0-5.471-2.443-5.471-5.477c0-3.028,2.437-5.471,5.471-5.471c3.028,0,5.471,2.443,5.471,5.471
					C553.708,615.517,551.265,617.96,548.237,617.96L548.237,617.96z M587.697,603.168h-78.925V478.699h78.925V603.168z
					 M587.697,603.168"/>
			</g>
		</g>
	</g>
</g>
</svg>
